<?xml version="1.0" ?>
<!DOCTYPE svg  PUBLIC '-//W3C//DTD SVG 1.1//EN'  'http://www.w3.org/Graphics/SVG/1.1/DTD/svg11.dtd'>
<svg xmlns="http://www.w3.org/2000/svg" width="700" height="700">
  <g fill="none" fill-rule="evenodd">
    <path d="M591.199 379.225L563.64 294.41l-54.617-168.097c-2.81-8.648-15.046-8.648-17.856 0L436.548 294.41H255.181l-54.62-168.097c-2.809-8.648-15.045-8.648-17.856 0L128.088 294.41l-27.557 84.815a18.775 18.775 0 0 0 6.82 20.992l238.513 173.29 238.515-173.29a18.777 18.777 0 0 0 6.82-20.992" fill="#FC6D26"/>
    <path d="M345.865 573.506l90.684-279.096H255.18l90.684 279.096z" fill="#E24329"/>
    <path d="M345.865 573.506L255.18 294.41H128.089l217.776 279.095z" fill="#FC6D26"/>
    <path d="M128.089 294.41l-27.56 84.815a18.773 18.773 0 0 0 6.822 20.991l238.514 173.29L128.089 294.41z" fill="#FCA326"/>
    <path d="M128.089 294.411H255.18l-54.62-168.097c-2.81-8.65-15.046-8.65-17.855 0L128.089 294.41z" fill="#E24329"/><path d="M345.865 573.506l90.684-279.095H563.64L345.865 573.506z" fill="#FC6D26"/>
    <path d="M563.64 294.41l27.559 84.815a18.773 18.773 0 0 1-6.821 20.991l-238.514 173.29L563.64 294.41z" fill="#FCA326"/>
    <path d="M563.64 294.411H436.548l54.619-168.097c2.81-8.65 15.047-8.65 17.856 0L563.64 294.41z" fill="#E24329"/>
  </g>
</svg>
